%TF.GenerationSoftware,KiCad,Pcbnew,8.0.4*%
%TF.CreationDate,2024-08-30T21:23:54-04:00*%
%TF.ProjectId,thumbstick-breakout,7468756d-6273-4746-9963-6b2d62726561,rev.01*%
%TF.SameCoordinates,Original*%
%TF.FileFunction,Copper,L2,Bot*%
%TF.FilePolarity,Positive*%
%FSLAX46Y46*%
G04 Gerber Fmt 4.6, Leading zero omitted, Abs format (unit mm)*
G04 Created by KiCad (PCBNEW 8.0.4) date 2024-08-30 21:23:54*
%MOMM*%
%LPD*%
G01*
G04 APERTURE LIST*
%TA.AperFunction,ComponentPad*%
%ADD10C,1.879600*%
%TD*%
%TA.AperFunction,ComponentPad*%
%ADD11C,2.550000*%
%TD*%
%TA.AperFunction,ComponentPad*%
%ADD12C,2.050000*%
%TD*%
%TA.AperFunction,ComponentPad*%
%ADD13C,2.250000*%
%TD*%
%TA.AperFunction,Conductor*%
%ADD14C,0.400000*%
%TD*%
%TA.AperFunction,Conductor*%
%ADD15C,0.200000*%
%TD*%
G04 APERTURE END LIST*
D10*
%TO.P,JP1,1,Pin_1*%
%TO.N,VCC*%
X144960000Y-116510000D03*
%TO.P,JP1,2,Pin_2*%
%TO.N,/VERT*%
X147500000Y-116510000D03*
%TO.P,JP1,3,Pin_3*%
%TO.N,/HORZ*%
X150040000Y-116510000D03*
%TO.P,JP1,4,Pin_4*%
%TO.N,/SEL*%
X152580000Y-116510000D03*
%TO.P,JP1,5,Pin_5*%
%TO.N,GND*%
X155120000Y-116510000D03*
%TD*%
D11*
%TO.P,U1,*%
%TO.N,*%
X156325000Y-105000000D03*
X156325000Y-95000000D03*
X143675000Y-105000000D03*
X143675000Y-95000000D03*
D12*
%TO.P,U1,1,H-*%
%TO.N,GND*%
X147500000Y-108730000D03*
%TO.P,U1,1',V-*%
X141270000Y-97500000D03*
%TO.P,U1,2,H*%
%TO.N,/HORZ*%
X150000000Y-108730000D03*
%TO.P,U1,2',V*%
%TO.N,/VERT*%
X141270000Y-100000000D03*
%TO.P,U1,3,H+*%
%TO.N,VCC*%
X152500000Y-108730000D03*
%TO.P,U1,3',V+*%
X141270000Y-102500000D03*
D13*
%TO.P,U1,a,SEL+*%
%TO.N,/SEL*%
X153250000Y-94250000D03*
%TO.P,U1,b*%
%TO.N,N/C*%
X146750000Y-94250000D03*
%TO.P,U1,c,SEL-*%
%TO.N,GND*%
X153250000Y-89750000D03*
%TO.P,U1,d*%
%TO.N,N/C*%
X146750000Y-89750000D03*
%TD*%
D14*
%TO.N,VCC*%
X149230000Y-112000000D02*
X145000000Y-112000000D01*
X145000000Y-112000000D02*
X144500000Y-112000000D01*
X144960000Y-116510000D02*
X144960000Y-112040000D01*
X144960000Y-112040000D02*
X145000000Y-112000000D01*
X152500000Y-108730000D02*
X149230000Y-112000000D01*
X144500000Y-112000000D02*
X141270000Y-108770000D01*
X141270000Y-108770000D02*
X141270000Y-102500000D01*
%TO.N,/SEL*%
X153250000Y-94250000D02*
X154375000Y-95375000D01*
X154375000Y-95375000D02*
X154375000Y-114715000D01*
X154375000Y-114715000D02*
X152580000Y-116510000D01*
%TO.N,VCC*%
X152500000Y-108970000D02*
X152500000Y-108730000D01*
D15*
%TO.N,/HORZ*%
X150040000Y-108770000D02*
X150000000Y-108730000D01*
%TD*%
M02*
