%TF.GenerationSoftware,KiCad,Pcbnew,8.0.4*%
%TF.CreationDate,2024-08-30T21:23:55-04:00*%
%TF.ProjectId,thumbstick-breakout,7468756d-6273-4746-9963-6b2d62726561,rev.01*%
%TF.SameCoordinates,Original*%
%TF.FileFunction,Legend,Bot*%
%TF.FilePolarity,Positive*%
%FSLAX46Y46*%
G04 Gerber Fmt 4.6, Leading zero omitted, Abs format (unit mm)*
G04 Created by KiCad (PCBNEW 8.0.4) date 2024-08-30 21:23:55*
%MOMM*%
%LPD*%
G01*
G04 APERTURE LIST*
%ADD10C,0.150000*%
%ADD11C,0.000000*%
%ADD12C,0.010000*%
G04 APERTURE END LIST*
D10*
X160869819Y-95741541D02*
X161869819Y-95979636D01*
X161869819Y-95979636D02*
X161155533Y-96170112D01*
X161155533Y-96170112D02*
X161869819Y-96360588D01*
X161869819Y-96360588D02*
X160869819Y-96598684D01*
X161869819Y-97408207D02*
X161346009Y-97408207D01*
X161346009Y-97408207D02*
X161250771Y-97360588D01*
X161250771Y-97360588D02*
X161203152Y-97265350D01*
X161203152Y-97265350D02*
X161203152Y-97074874D01*
X161203152Y-97074874D02*
X161250771Y-96979636D01*
X161822200Y-97408207D02*
X161869819Y-97312969D01*
X161869819Y-97312969D02*
X161869819Y-97074874D01*
X161869819Y-97074874D02*
X161822200Y-96979636D01*
X161822200Y-96979636D02*
X161726961Y-96932017D01*
X161726961Y-96932017D02*
X161631723Y-96932017D01*
X161631723Y-96932017D02*
X161536485Y-96979636D01*
X161536485Y-96979636D02*
X161488866Y-97074874D01*
X161488866Y-97074874D02*
X161488866Y-97312969D01*
X161488866Y-97312969D02*
X161441247Y-97408207D01*
X161203152Y-97789160D02*
X161869819Y-98027255D01*
X161203152Y-98265350D02*
X161869819Y-98027255D01*
X161869819Y-98027255D02*
X162107914Y-97932017D01*
X162107914Y-97932017D02*
X162155533Y-97884398D01*
X162155533Y-97884398D02*
X162203152Y-97789160D01*
X160869819Y-98551065D02*
X161869819Y-98789160D01*
X161869819Y-98789160D02*
X161155533Y-98979636D01*
X161155533Y-98979636D02*
X161869819Y-99170112D01*
X161869819Y-99170112D02*
X160869819Y-99408208D01*
X161869819Y-100217731D02*
X161346009Y-100217731D01*
X161346009Y-100217731D02*
X161250771Y-100170112D01*
X161250771Y-100170112D02*
X161203152Y-100074874D01*
X161203152Y-100074874D02*
X161203152Y-99884398D01*
X161203152Y-99884398D02*
X161250771Y-99789160D01*
X161822200Y-100217731D02*
X161869819Y-100122493D01*
X161869819Y-100122493D02*
X161869819Y-99884398D01*
X161869819Y-99884398D02*
X161822200Y-99789160D01*
X161822200Y-99789160D02*
X161726961Y-99741541D01*
X161726961Y-99741541D02*
X161631723Y-99741541D01*
X161631723Y-99741541D02*
X161536485Y-99789160D01*
X161536485Y-99789160D02*
X161488866Y-99884398D01*
X161488866Y-99884398D02*
X161488866Y-100122493D01*
X161488866Y-100122493D02*
X161441247Y-100217731D01*
X161203152Y-100598684D02*
X161869819Y-100836779D01*
X161203152Y-101074874D02*
X161869819Y-100836779D01*
X161869819Y-100836779D02*
X162107914Y-100741541D01*
X162107914Y-100741541D02*
X162155533Y-100693922D01*
X162155533Y-100693922D02*
X162203152Y-100598684D01*
X160869819Y-101360589D02*
X161869819Y-101598684D01*
X161869819Y-101598684D02*
X161155533Y-101789160D01*
X161155533Y-101789160D02*
X161869819Y-101979636D01*
X161869819Y-101979636D02*
X160869819Y-102217732D01*
X161869819Y-103027255D02*
X161346009Y-103027255D01*
X161346009Y-103027255D02*
X161250771Y-102979636D01*
X161250771Y-102979636D02*
X161203152Y-102884398D01*
X161203152Y-102884398D02*
X161203152Y-102693922D01*
X161203152Y-102693922D02*
X161250771Y-102598684D01*
X161822200Y-103027255D02*
X161869819Y-102932017D01*
X161869819Y-102932017D02*
X161869819Y-102693922D01*
X161869819Y-102693922D02*
X161822200Y-102598684D01*
X161822200Y-102598684D02*
X161726961Y-102551065D01*
X161726961Y-102551065D02*
X161631723Y-102551065D01*
X161631723Y-102551065D02*
X161536485Y-102598684D01*
X161536485Y-102598684D02*
X161488866Y-102693922D01*
X161488866Y-102693922D02*
X161488866Y-102932017D01*
X161488866Y-102932017D02*
X161441247Y-103027255D01*
X161203152Y-103408208D02*
X161869819Y-103646303D01*
X161203152Y-103884398D02*
X161869819Y-103646303D01*
X161869819Y-103646303D02*
X162107914Y-103551065D01*
X162107914Y-103551065D02*
X162155533Y-103503446D01*
X162155533Y-103503446D02*
X162203152Y-103408208D01*
X155734649Y-87869819D02*
X155734649Y-86869819D01*
X155734649Y-87822200D02*
X155829887Y-87869819D01*
X155829887Y-87869819D02*
X156020363Y-87869819D01*
X156020363Y-87869819D02*
X156115601Y-87822200D01*
X156115601Y-87822200D02*
X156163220Y-87774580D01*
X156163220Y-87774580D02*
X156210839Y-87679342D01*
X156210839Y-87679342D02*
X156210839Y-87393628D01*
X156210839Y-87393628D02*
X156163220Y-87298390D01*
X156163220Y-87298390D02*
X156115601Y-87250771D01*
X156115601Y-87250771D02*
X156020363Y-87203152D01*
X156020363Y-87203152D02*
X155829887Y-87203152D01*
X155829887Y-87203152D02*
X155734649Y-87250771D01*
X155258458Y-87869819D02*
X155258458Y-86869819D01*
X155258458Y-87250771D02*
X155163220Y-87203152D01*
X155163220Y-87203152D02*
X154972744Y-87203152D01*
X154972744Y-87203152D02*
X154877506Y-87250771D01*
X154877506Y-87250771D02*
X154829887Y-87298390D01*
X154829887Y-87298390D02*
X154782268Y-87393628D01*
X154782268Y-87393628D02*
X154782268Y-87679342D01*
X154782268Y-87679342D02*
X154829887Y-87774580D01*
X154829887Y-87774580D02*
X154877506Y-87822200D01*
X154877506Y-87822200D02*
X154972744Y-87869819D01*
X154972744Y-87869819D02*
X155163220Y-87869819D01*
X155163220Y-87869819D02*
X155258458Y-87822200D01*
X153972744Y-87822200D02*
X154067982Y-87869819D01*
X154067982Y-87869819D02*
X154258458Y-87869819D01*
X154258458Y-87869819D02*
X154353696Y-87822200D01*
X154353696Y-87822200D02*
X154401315Y-87726961D01*
X154401315Y-87726961D02*
X154401315Y-87346009D01*
X154401315Y-87346009D02*
X154353696Y-87250771D01*
X154353696Y-87250771D02*
X154258458Y-87203152D01*
X154258458Y-87203152D02*
X154067982Y-87203152D01*
X154067982Y-87203152D02*
X153972744Y-87250771D01*
X153972744Y-87250771D02*
X153925125Y-87346009D01*
X153925125Y-87346009D02*
X153925125Y-87441247D01*
X153925125Y-87441247D02*
X154401315Y-87536485D01*
X153496553Y-87203152D02*
X153496553Y-87869819D01*
X153496553Y-87298390D02*
X153448934Y-87250771D01*
X153448934Y-87250771D02*
X153353696Y-87203152D01*
X153353696Y-87203152D02*
X153210839Y-87203152D01*
X153210839Y-87203152D02*
X153115601Y-87250771D01*
X153115601Y-87250771D02*
X153067982Y-87346009D01*
X153067982Y-87346009D02*
X153067982Y-87869819D01*
X152448934Y-87869819D02*
X152544172Y-87822200D01*
X152544172Y-87822200D02*
X152591791Y-87774580D01*
X152591791Y-87774580D02*
X152639410Y-87679342D01*
X152639410Y-87679342D02*
X152639410Y-87393628D01*
X152639410Y-87393628D02*
X152591791Y-87298390D01*
X152591791Y-87298390D02*
X152544172Y-87250771D01*
X152544172Y-87250771D02*
X152448934Y-87203152D01*
X152448934Y-87203152D02*
X152306077Y-87203152D01*
X152306077Y-87203152D02*
X152210839Y-87250771D01*
X152210839Y-87250771D02*
X152163220Y-87298390D01*
X152163220Y-87298390D02*
X152115601Y-87393628D01*
X152115601Y-87393628D02*
X152115601Y-87679342D01*
X152115601Y-87679342D02*
X152163220Y-87774580D01*
X152163220Y-87774580D02*
X152210839Y-87822200D01*
X152210839Y-87822200D02*
X152306077Y-87869819D01*
X152306077Y-87869819D02*
X152448934Y-87869819D01*
X151782267Y-87203152D02*
X151544172Y-87869819D01*
X151306077Y-87203152D02*
X151544172Y-87869819D01*
X151544172Y-87869819D02*
X151639410Y-88107914D01*
X151639410Y-88107914D02*
X151687029Y-88155533D01*
X151687029Y-88155533D02*
X151782267Y-88203152D01*
X159880952Y-111399931D02*
X159880952Y-110399931D01*
X159880952Y-110399931D02*
X159642857Y-110399931D01*
X159642857Y-110399931D02*
X159500000Y-110447550D01*
X159500000Y-110447550D02*
X159404762Y-110542788D01*
X159404762Y-110542788D02*
X159357143Y-110638026D01*
X159357143Y-110638026D02*
X159309524Y-110828502D01*
X159309524Y-110828502D02*
X159309524Y-110971359D01*
X159309524Y-110971359D02*
X159357143Y-111161835D01*
X159357143Y-111161835D02*
X159404762Y-111257073D01*
X159404762Y-111257073D02*
X159500000Y-111352312D01*
X159500000Y-111352312D02*
X159642857Y-111399931D01*
X159642857Y-111399931D02*
X159880952Y-111399931D01*
X158500000Y-111352312D02*
X158595238Y-111399931D01*
X158595238Y-111399931D02*
X158785714Y-111399931D01*
X158785714Y-111399931D02*
X158880952Y-111352312D01*
X158880952Y-111352312D02*
X158928571Y-111257073D01*
X158928571Y-111257073D02*
X158928571Y-110876121D01*
X158928571Y-110876121D02*
X158880952Y-110780883D01*
X158880952Y-110780883D02*
X158785714Y-110733264D01*
X158785714Y-110733264D02*
X158595238Y-110733264D01*
X158595238Y-110733264D02*
X158500000Y-110780883D01*
X158500000Y-110780883D02*
X158452381Y-110876121D01*
X158452381Y-110876121D02*
X158452381Y-110971359D01*
X158452381Y-110971359D02*
X158928571Y-111066597D01*
X158071428Y-111352312D02*
X157976190Y-111399931D01*
X157976190Y-111399931D02*
X157785714Y-111399931D01*
X157785714Y-111399931D02*
X157690476Y-111352312D01*
X157690476Y-111352312D02*
X157642857Y-111257073D01*
X157642857Y-111257073D02*
X157642857Y-111209454D01*
X157642857Y-111209454D02*
X157690476Y-111114216D01*
X157690476Y-111114216D02*
X157785714Y-111066597D01*
X157785714Y-111066597D02*
X157928571Y-111066597D01*
X157928571Y-111066597D02*
X158023809Y-111018978D01*
X158023809Y-111018978D02*
X158071428Y-110923740D01*
X158071428Y-110923740D02*
X158071428Y-110876121D01*
X158071428Y-110876121D02*
X158023809Y-110780883D01*
X158023809Y-110780883D02*
X157928571Y-110733264D01*
X157928571Y-110733264D02*
X157785714Y-110733264D01*
X157785714Y-110733264D02*
X157690476Y-110780883D01*
X157214285Y-111399931D02*
X157214285Y-110733264D01*
X157214285Y-110399931D02*
X157261904Y-110447550D01*
X157261904Y-110447550D02*
X157214285Y-110495169D01*
X157214285Y-110495169D02*
X157166666Y-110447550D01*
X157166666Y-110447550D02*
X157214285Y-110399931D01*
X157214285Y-110399931D02*
X157214285Y-110495169D01*
X156309524Y-110733264D02*
X156309524Y-111542788D01*
X156309524Y-111542788D02*
X156357143Y-111638026D01*
X156357143Y-111638026D02*
X156404762Y-111685645D01*
X156404762Y-111685645D02*
X156500000Y-111733264D01*
X156500000Y-111733264D02*
X156642857Y-111733264D01*
X156642857Y-111733264D02*
X156738095Y-111685645D01*
X156309524Y-111352312D02*
X156404762Y-111399931D01*
X156404762Y-111399931D02*
X156595238Y-111399931D01*
X156595238Y-111399931D02*
X156690476Y-111352312D01*
X156690476Y-111352312D02*
X156738095Y-111304692D01*
X156738095Y-111304692D02*
X156785714Y-111209454D01*
X156785714Y-111209454D02*
X156785714Y-110923740D01*
X156785714Y-110923740D02*
X156738095Y-110828502D01*
X156738095Y-110828502D02*
X156690476Y-110780883D01*
X156690476Y-110780883D02*
X156595238Y-110733264D01*
X156595238Y-110733264D02*
X156404762Y-110733264D01*
X156404762Y-110733264D02*
X156309524Y-110780883D01*
X155833333Y-110733264D02*
X155833333Y-111399931D01*
X155833333Y-110828502D02*
X155785714Y-110780883D01*
X155785714Y-110780883D02*
X155690476Y-110733264D01*
X155690476Y-110733264D02*
X155547619Y-110733264D01*
X155547619Y-110733264D02*
X155452381Y-110780883D01*
X155452381Y-110780883D02*
X155404762Y-110876121D01*
X155404762Y-110876121D02*
X155404762Y-111399931D01*
X154547619Y-111352312D02*
X154642857Y-111399931D01*
X154642857Y-111399931D02*
X154833333Y-111399931D01*
X154833333Y-111399931D02*
X154928571Y-111352312D01*
X154928571Y-111352312D02*
X154976190Y-111257073D01*
X154976190Y-111257073D02*
X154976190Y-110876121D01*
X154976190Y-110876121D02*
X154928571Y-110780883D01*
X154928571Y-110780883D02*
X154833333Y-110733264D01*
X154833333Y-110733264D02*
X154642857Y-110733264D01*
X154642857Y-110733264D02*
X154547619Y-110780883D01*
X154547619Y-110780883D02*
X154500000Y-110876121D01*
X154500000Y-110876121D02*
X154500000Y-110971359D01*
X154500000Y-110971359D02*
X154976190Y-111066597D01*
X153642857Y-111399931D02*
X153642857Y-110399931D01*
X153642857Y-111352312D02*
X153738095Y-111399931D01*
X153738095Y-111399931D02*
X153928571Y-111399931D01*
X153928571Y-111399931D02*
X154023809Y-111352312D01*
X154023809Y-111352312D02*
X154071428Y-111304692D01*
X154071428Y-111304692D02*
X154119047Y-111209454D01*
X154119047Y-111209454D02*
X154119047Y-110923740D01*
X154119047Y-110923740D02*
X154071428Y-110828502D01*
X154071428Y-110828502D02*
X154023809Y-110780883D01*
X154023809Y-110780883D02*
X153928571Y-110733264D01*
X153928571Y-110733264D02*
X153738095Y-110733264D01*
X153738095Y-110733264D02*
X153642857Y-110780883D01*
X152404761Y-111399931D02*
X152404761Y-110399931D01*
X152404761Y-110780883D02*
X152309523Y-110733264D01*
X152309523Y-110733264D02*
X152119047Y-110733264D01*
X152119047Y-110733264D02*
X152023809Y-110780883D01*
X152023809Y-110780883D02*
X151976190Y-110828502D01*
X151976190Y-110828502D02*
X151928571Y-110923740D01*
X151928571Y-110923740D02*
X151928571Y-111209454D01*
X151928571Y-111209454D02*
X151976190Y-111304692D01*
X151976190Y-111304692D02*
X152023809Y-111352312D01*
X152023809Y-111352312D02*
X152119047Y-111399931D01*
X152119047Y-111399931D02*
X152309523Y-111399931D01*
X152309523Y-111399931D02*
X152404761Y-111352312D01*
X151595237Y-110733264D02*
X151357142Y-111399931D01*
X151119047Y-110733264D02*
X151357142Y-111399931D01*
X151357142Y-111399931D02*
X151452380Y-111638026D01*
X151452380Y-111638026D02*
X151499999Y-111685645D01*
X151499999Y-111685645D02*
X151595237Y-111733264D01*
X150738094Y-111304692D02*
X150690475Y-111352312D01*
X150690475Y-111352312D02*
X150738094Y-111399931D01*
X150738094Y-111399931D02*
X150785713Y-111352312D01*
X150785713Y-111352312D02*
X150738094Y-111304692D01*
X150738094Y-111304692D02*
X150738094Y-111399931D01*
X150738094Y-110780883D02*
X150690475Y-110828502D01*
X150690475Y-110828502D02*
X150738094Y-110876121D01*
X150738094Y-110876121D02*
X150785713Y-110828502D01*
X150785713Y-110828502D02*
X150738094Y-110780883D01*
X150738094Y-110780883D02*
X150738094Y-110876121D01*
X149499999Y-111399931D02*
X149499999Y-110399931D01*
X149499999Y-110399931D02*
X149261904Y-110399931D01*
X149261904Y-110399931D02*
X149119047Y-110447550D01*
X149119047Y-110447550D02*
X149023809Y-110542788D01*
X149023809Y-110542788D02*
X148976190Y-110638026D01*
X148976190Y-110638026D02*
X148928571Y-110828502D01*
X148928571Y-110828502D02*
X148928571Y-110971359D01*
X148928571Y-110971359D02*
X148976190Y-111161835D01*
X148976190Y-111161835D02*
X149023809Y-111257073D01*
X149023809Y-111257073D02*
X149119047Y-111352312D01*
X149119047Y-111352312D02*
X149261904Y-111399931D01*
X149261904Y-111399931D02*
X149499999Y-111399931D01*
X148071428Y-111399931D02*
X148071428Y-110876121D01*
X148071428Y-110876121D02*
X148119047Y-110780883D01*
X148119047Y-110780883D02*
X148214285Y-110733264D01*
X148214285Y-110733264D02*
X148404761Y-110733264D01*
X148404761Y-110733264D02*
X148499999Y-110780883D01*
X148071428Y-111352312D02*
X148166666Y-111399931D01*
X148166666Y-111399931D02*
X148404761Y-111399931D01*
X148404761Y-111399931D02*
X148499999Y-111352312D01*
X148499999Y-111352312D02*
X148547618Y-111257073D01*
X148547618Y-111257073D02*
X148547618Y-111161835D01*
X148547618Y-111161835D02*
X148499999Y-111066597D01*
X148499999Y-111066597D02*
X148404761Y-111018978D01*
X148404761Y-111018978D02*
X148166666Y-111018978D01*
X148166666Y-111018978D02*
X148071428Y-110971359D01*
X147595237Y-110733264D02*
X147595237Y-111399931D01*
X147595237Y-110828502D02*
X147547618Y-110780883D01*
X147547618Y-110780883D02*
X147452380Y-110733264D01*
X147452380Y-110733264D02*
X147309523Y-110733264D01*
X147309523Y-110733264D02*
X147214285Y-110780883D01*
X147214285Y-110780883D02*
X147166666Y-110876121D01*
X147166666Y-110876121D02*
X147166666Y-111399931D01*
X146690475Y-111399931D02*
X146690475Y-110733264D01*
X146690475Y-110399931D02*
X146738094Y-110447550D01*
X146738094Y-110447550D02*
X146690475Y-110495169D01*
X146690475Y-110495169D02*
X146642856Y-110447550D01*
X146642856Y-110447550D02*
X146690475Y-110399931D01*
X146690475Y-110399931D02*
X146690475Y-110495169D01*
X145833333Y-111352312D02*
X145928571Y-111399931D01*
X145928571Y-111399931D02*
X146119047Y-111399931D01*
X146119047Y-111399931D02*
X146214285Y-111352312D01*
X146214285Y-111352312D02*
X146261904Y-111257073D01*
X146261904Y-111257073D02*
X146261904Y-110876121D01*
X146261904Y-110876121D02*
X146214285Y-110780883D01*
X146214285Y-110780883D02*
X146119047Y-110733264D01*
X146119047Y-110733264D02*
X145928571Y-110733264D01*
X145928571Y-110733264D02*
X145833333Y-110780883D01*
X145833333Y-110780883D02*
X145785714Y-110876121D01*
X145785714Y-110876121D02*
X145785714Y-110971359D01*
X145785714Y-110971359D02*
X146261904Y-111066597D01*
X145214285Y-111399931D02*
X145309523Y-111352312D01*
X145309523Y-111352312D02*
X145357142Y-111257073D01*
X145357142Y-111257073D02*
X145357142Y-110399931D01*
X143738094Y-110876121D02*
X143595237Y-110923740D01*
X143595237Y-110923740D02*
X143547618Y-110971359D01*
X143547618Y-110971359D02*
X143499999Y-111066597D01*
X143499999Y-111066597D02*
X143499999Y-111209454D01*
X143499999Y-111209454D02*
X143547618Y-111304692D01*
X143547618Y-111304692D02*
X143595237Y-111352312D01*
X143595237Y-111352312D02*
X143690475Y-111399931D01*
X143690475Y-111399931D02*
X144071427Y-111399931D01*
X144071427Y-111399931D02*
X144071427Y-110399931D01*
X144071427Y-110399931D02*
X143738094Y-110399931D01*
X143738094Y-110399931D02*
X143642856Y-110447550D01*
X143642856Y-110447550D02*
X143595237Y-110495169D01*
X143595237Y-110495169D02*
X143547618Y-110590407D01*
X143547618Y-110590407D02*
X143547618Y-110685645D01*
X143547618Y-110685645D02*
X143595237Y-110780883D01*
X143595237Y-110780883D02*
X143642856Y-110828502D01*
X143642856Y-110828502D02*
X143738094Y-110876121D01*
X143738094Y-110876121D02*
X144071427Y-110876121D01*
X142690475Y-111352312D02*
X142785713Y-111399931D01*
X142785713Y-111399931D02*
X142976189Y-111399931D01*
X142976189Y-111399931D02*
X143071427Y-111352312D01*
X143071427Y-111352312D02*
X143119046Y-111257073D01*
X143119046Y-111257073D02*
X143119046Y-110876121D01*
X143119046Y-110876121D02*
X143071427Y-110780883D01*
X143071427Y-110780883D02*
X142976189Y-110733264D01*
X142976189Y-110733264D02*
X142785713Y-110733264D01*
X142785713Y-110733264D02*
X142690475Y-110780883D01*
X142690475Y-110780883D02*
X142642856Y-110876121D01*
X142642856Y-110876121D02*
X142642856Y-110971359D01*
X142642856Y-110971359D02*
X143119046Y-111066597D01*
X142214284Y-110733264D02*
X142214284Y-111399931D01*
X142214284Y-110828502D02*
X142166665Y-110780883D01*
X142166665Y-110780883D02*
X142071427Y-110733264D01*
X142071427Y-110733264D02*
X141928570Y-110733264D01*
X141928570Y-110733264D02*
X141833332Y-110780883D01*
X141833332Y-110780883D02*
X141785713Y-110876121D01*
X141785713Y-110876121D02*
X141785713Y-111399931D01*
X141166665Y-111399931D02*
X141261903Y-111352312D01*
X141261903Y-111352312D02*
X141309522Y-111304692D01*
X141309522Y-111304692D02*
X141357141Y-111209454D01*
X141357141Y-111209454D02*
X141357141Y-110923740D01*
X141357141Y-110923740D02*
X141309522Y-110828502D01*
X141309522Y-110828502D02*
X141261903Y-110780883D01*
X141261903Y-110780883D02*
X141166665Y-110733264D01*
X141166665Y-110733264D02*
X141023808Y-110733264D01*
X141023808Y-110733264D02*
X140928570Y-110780883D01*
X140928570Y-110780883D02*
X140880951Y-110828502D01*
X140880951Y-110828502D02*
X140833332Y-110923740D01*
X140833332Y-110923740D02*
X140833332Y-111209454D01*
X140833332Y-111209454D02*
X140880951Y-111304692D01*
X140880951Y-111304692D02*
X140928570Y-111352312D01*
X140928570Y-111352312D02*
X141023808Y-111399931D01*
X141023808Y-111399931D02*
X141166665Y-111399931D01*
X140499998Y-110733264D02*
X140261903Y-111399931D01*
X140023808Y-110733264D02*
X140261903Y-111399931D01*
X140261903Y-111399931D02*
X140357141Y-111638026D01*
X140357141Y-111638026D02*
X140404760Y-111685645D01*
X140404760Y-111685645D02*
X140499998Y-111733264D01*
X154357143Y-112914636D02*
X154404762Y-112962256D01*
X154404762Y-112962256D02*
X154547619Y-113009875D01*
X154547619Y-113009875D02*
X154642857Y-113009875D01*
X154642857Y-113009875D02*
X154785714Y-112962256D01*
X154785714Y-112962256D02*
X154880952Y-112867017D01*
X154880952Y-112867017D02*
X154928571Y-112771779D01*
X154928571Y-112771779D02*
X154976190Y-112581303D01*
X154976190Y-112581303D02*
X154976190Y-112438446D01*
X154976190Y-112438446D02*
X154928571Y-112247970D01*
X154928571Y-112247970D02*
X154880952Y-112152732D01*
X154880952Y-112152732D02*
X154785714Y-112057494D01*
X154785714Y-112057494D02*
X154642857Y-112009875D01*
X154642857Y-112009875D02*
X154547619Y-112009875D01*
X154547619Y-112009875D02*
X154404762Y-112057494D01*
X154404762Y-112057494D02*
X154357143Y-112105113D01*
X153357143Y-112914636D02*
X153404762Y-112962256D01*
X153404762Y-112962256D02*
X153547619Y-113009875D01*
X153547619Y-113009875D02*
X153642857Y-113009875D01*
X153642857Y-113009875D02*
X153785714Y-112962256D01*
X153785714Y-112962256D02*
X153880952Y-112867017D01*
X153880952Y-112867017D02*
X153928571Y-112771779D01*
X153928571Y-112771779D02*
X153976190Y-112581303D01*
X153976190Y-112581303D02*
X153976190Y-112438446D01*
X153976190Y-112438446D02*
X153928571Y-112247970D01*
X153928571Y-112247970D02*
X153880952Y-112152732D01*
X153880952Y-112152732D02*
X153785714Y-112057494D01*
X153785714Y-112057494D02*
X153642857Y-112009875D01*
X153642857Y-112009875D02*
X153547619Y-112009875D01*
X153547619Y-112009875D02*
X153404762Y-112057494D01*
X153404762Y-112057494D02*
X153357143Y-112105113D01*
X151833333Y-112486065D02*
X151690476Y-112533684D01*
X151690476Y-112533684D02*
X151642857Y-112581303D01*
X151642857Y-112581303D02*
X151595238Y-112676541D01*
X151595238Y-112676541D02*
X151595238Y-112819398D01*
X151595238Y-112819398D02*
X151642857Y-112914636D01*
X151642857Y-112914636D02*
X151690476Y-112962256D01*
X151690476Y-112962256D02*
X151785714Y-113009875D01*
X151785714Y-113009875D02*
X152166666Y-113009875D01*
X152166666Y-113009875D02*
X152166666Y-112009875D01*
X152166666Y-112009875D02*
X151833333Y-112009875D01*
X151833333Y-112009875D02*
X151738095Y-112057494D01*
X151738095Y-112057494D02*
X151690476Y-112105113D01*
X151690476Y-112105113D02*
X151642857Y-112200351D01*
X151642857Y-112200351D02*
X151642857Y-112295589D01*
X151642857Y-112295589D02*
X151690476Y-112390827D01*
X151690476Y-112390827D02*
X151738095Y-112438446D01*
X151738095Y-112438446D02*
X151833333Y-112486065D01*
X151833333Y-112486065D02*
X152166666Y-112486065D01*
X150976190Y-112533684D02*
X150976190Y-113009875D01*
X151309523Y-112009875D02*
X150976190Y-112533684D01*
X150976190Y-112533684D02*
X150642857Y-112009875D01*
X149595237Y-112962256D02*
X149452380Y-113009875D01*
X149452380Y-113009875D02*
X149214285Y-113009875D01*
X149214285Y-113009875D02*
X149119047Y-112962256D01*
X149119047Y-112962256D02*
X149071428Y-112914636D01*
X149071428Y-112914636D02*
X149023809Y-112819398D01*
X149023809Y-112819398D02*
X149023809Y-112724160D01*
X149023809Y-112724160D02*
X149071428Y-112628922D01*
X149071428Y-112628922D02*
X149119047Y-112581303D01*
X149119047Y-112581303D02*
X149214285Y-112533684D01*
X149214285Y-112533684D02*
X149404761Y-112486065D01*
X149404761Y-112486065D02*
X149499999Y-112438446D01*
X149499999Y-112438446D02*
X149547618Y-112390827D01*
X149547618Y-112390827D02*
X149595237Y-112295589D01*
X149595237Y-112295589D02*
X149595237Y-112200351D01*
X149595237Y-112200351D02*
X149547618Y-112105113D01*
X149547618Y-112105113D02*
X149499999Y-112057494D01*
X149499999Y-112057494D02*
X149404761Y-112009875D01*
X149404761Y-112009875D02*
X149166666Y-112009875D01*
X149166666Y-112009875D02*
X149023809Y-112057494D01*
X148642856Y-112724160D02*
X148166666Y-112724160D01*
X148738094Y-113009875D02*
X148404761Y-112009875D01*
X148404761Y-112009875D02*
X148071428Y-113009875D01*
X146547618Y-112343208D02*
X146547618Y-113009875D01*
X146785713Y-111962256D02*
X147023808Y-112676541D01*
X147023808Y-112676541D02*
X146404761Y-112676541D01*
X146023808Y-112914636D02*
X145976189Y-112962256D01*
X145976189Y-112962256D02*
X146023808Y-113009875D01*
X146023808Y-113009875D02*
X146071427Y-112962256D01*
X146071427Y-112962256D02*
X146023808Y-112914636D01*
X146023808Y-112914636D02*
X146023808Y-113009875D01*
X145357142Y-112009875D02*
X145261904Y-112009875D01*
X145261904Y-112009875D02*
X145166666Y-112057494D01*
X145166666Y-112057494D02*
X145119047Y-112105113D01*
X145119047Y-112105113D02*
X145071428Y-112200351D01*
X145071428Y-112200351D02*
X145023809Y-112390827D01*
X145023809Y-112390827D02*
X145023809Y-112628922D01*
X145023809Y-112628922D02*
X145071428Y-112819398D01*
X145071428Y-112819398D02*
X145119047Y-112914636D01*
X145119047Y-112914636D02*
X145166666Y-112962256D01*
X145166666Y-112962256D02*
X145261904Y-113009875D01*
X145261904Y-113009875D02*
X145357142Y-113009875D01*
X145357142Y-113009875D02*
X145452380Y-112962256D01*
X145452380Y-112962256D02*
X145499999Y-112914636D01*
X145499999Y-112914636D02*
X145547618Y-112819398D01*
X145547618Y-112819398D02*
X145595237Y-112628922D01*
X145595237Y-112628922D02*
X145595237Y-112390827D01*
X145595237Y-112390827D02*
X145547618Y-112200351D01*
X145547618Y-112200351D02*
X145499999Y-112105113D01*
X145499999Y-112105113D02*
X145452380Y-112057494D01*
X145452380Y-112057494D02*
X145357142Y-112009875D01*
X155571428Y-114619819D02*
X155571428Y-113619819D01*
X155571428Y-114572200D02*
X155666666Y-114619819D01*
X155666666Y-114619819D02*
X155857142Y-114619819D01*
X155857142Y-114619819D02*
X155952380Y-114572200D01*
X155952380Y-114572200D02*
X155999999Y-114524580D01*
X155999999Y-114524580D02*
X156047618Y-114429342D01*
X156047618Y-114429342D02*
X156047618Y-114143628D01*
X156047618Y-114143628D02*
X155999999Y-114048390D01*
X155999999Y-114048390D02*
X155952380Y-114000771D01*
X155952380Y-114000771D02*
X155857142Y-113953152D01*
X155857142Y-113953152D02*
X155666666Y-113953152D01*
X155666666Y-113953152D02*
X155571428Y-114000771D01*
X154666666Y-114619819D02*
X154666666Y-114096009D01*
X154666666Y-114096009D02*
X154714285Y-114000771D01*
X154714285Y-114000771D02*
X154809523Y-113953152D01*
X154809523Y-113953152D02*
X154999999Y-113953152D01*
X154999999Y-113953152D02*
X155095237Y-114000771D01*
X154666666Y-114572200D02*
X154761904Y-114619819D01*
X154761904Y-114619819D02*
X154999999Y-114619819D01*
X154999999Y-114619819D02*
X155095237Y-114572200D01*
X155095237Y-114572200D02*
X155142856Y-114476961D01*
X155142856Y-114476961D02*
X155142856Y-114381723D01*
X155142856Y-114381723D02*
X155095237Y-114286485D01*
X155095237Y-114286485D02*
X154999999Y-114238866D01*
X154999999Y-114238866D02*
X154761904Y-114238866D01*
X154761904Y-114238866D02*
X154666666Y-114191247D01*
X154190475Y-113953152D02*
X154190475Y-114619819D01*
X154190475Y-114048390D02*
X154142856Y-114000771D01*
X154142856Y-114000771D02*
X154047618Y-113953152D01*
X154047618Y-113953152D02*
X153904761Y-113953152D01*
X153904761Y-113953152D02*
X153809523Y-114000771D01*
X153809523Y-114000771D02*
X153761904Y-114096009D01*
X153761904Y-114096009D02*
X153761904Y-114619819D01*
X153285713Y-114619819D02*
X153285713Y-113953152D01*
X153285713Y-113619819D02*
X153333332Y-113667438D01*
X153333332Y-113667438D02*
X153285713Y-113715057D01*
X153285713Y-113715057D02*
X153238094Y-113667438D01*
X153238094Y-113667438D02*
X153285713Y-113619819D01*
X153285713Y-113619819D02*
X153285713Y-113715057D01*
X152428571Y-114572200D02*
X152523809Y-114619819D01*
X152523809Y-114619819D02*
X152714285Y-114619819D01*
X152714285Y-114619819D02*
X152809523Y-114572200D01*
X152809523Y-114572200D02*
X152857142Y-114476961D01*
X152857142Y-114476961D02*
X152857142Y-114096009D01*
X152857142Y-114096009D02*
X152809523Y-114000771D01*
X152809523Y-114000771D02*
X152714285Y-113953152D01*
X152714285Y-113953152D02*
X152523809Y-113953152D01*
X152523809Y-113953152D02*
X152428571Y-114000771D01*
X152428571Y-114000771D02*
X152380952Y-114096009D01*
X152380952Y-114096009D02*
X152380952Y-114191247D01*
X152380952Y-114191247D02*
X152857142Y-114286485D01*
X151809523Y-114619819D02*
X151904761Y-114572200D01*
X151904761Y-114572200D02*
X151952380Y-114476961D01*
X151952380Y-114476961D02*
X151952380Y-113619819D01*
X151428570Y-114619819D02*
X151428570Y-113619819D01*
X151428570Y-114000771D02*
X151333332Y-113953152D01*
X151333332Y-113953152D02*
X151142856Y-113953152D01*
X151142856Y-113953152D02*
X151047618Y-114000771D01*
X151047618Y-114000771D02*
X150999999Y-114048390D01*
X150999999Y-114048390D02*
X150952380Y-114143628D01*
X150952380Y-114143628D02*
X150952380Y-114429342D01*
X150952380Y-114429342D02*
X150999999Y-114524580D01*
X150999999Y-114524580D02*
X151047618Y-114572200D01*
X151047618Y-114572200D02*
X151142856Y-114619819D01*
X151142856Y-114619819D02*
X151333332Y-114619819D01*
X151333332Y-114619819D02*
X151428570Y-114572200D01*
X150142856Y-114572200D02*
X150238094Y-114619819D01*
X150238094Y-114619819D02*
X150428570Y-114619819D01*
X150428570Y-114619819D02*
X150523808Y-114572200D01*
X150523808Y-114572200D02*
X150571427Y-114476961D01*
X150571427Y-114476961D02*
X150571427Y-114096009D01*
X150571427Y-114096009D02*
X150523808Y-114000771D01*
X150523808Y-114000771D02*
X150428570Y-113953152D01*
X150428570Y-113953152D02*
X150238094Y-113953152D01*
X150238094Y-113953152D02*
X150142856Y-114000771D01*
X150142856Y-114000771D02*
X150095237Y-114096009D01*
X150095237Y-114096009D02*
X150095237Y-114191247D01*
X150095237Y-114191247D02*
X150571427Y-114286485D01*
X149666665Y-113953152D02*
X149666665Y-114619819D01*
X149666665Y-114048390D02*
X149619046Y-114000771D01*
X149619046Y-114000771D02*
X149523808Y-113953152D01*
X149523808Y-113953152D02*
X149380951Y-113953152D01*
X149380951Y-113953152D02*
X149285713Y-114000771D01*
X149285713Y-114000771D02*
X149238094Y-114096009D01*
X149238094Y-114096009D02*
X149238094Y-114619819D01*
X148619046Y-114619819D02*
X148714284Y-114572200D01*
X148714284Y-114572200D02*
X148761903Y-114524580D01*
X148761903Y-114524580D02*
X148809522Y-114429342D01*
X148809522Y-114429342D02*
X148809522Y-114143628D01*
X148809522Y-114143628D02*
X148761903Y-114048390D01*
X148761903Y-114048390D02*
X148714284Y-114000771D01*
X148714284Y-114000771D02*
X148619046Y-113953152D01*
X148619046Y-113953152D02*
X148476189Y-113953152D01*
X148476189Y-113953152D02*
X148380951Y-114000771D01*
X148380951Y-114000771D02*
X148333332Y-114048390D01*
X148333332Y-114048390D02*
X148285713Y-114143628D01*
X148285713Y-114143628D02*
X148285713Y-114429342D01*
X148285713Y-114429342D02*
X148333332Y-114524580D01*
X148333332Y-114524580D02*
X148380951Y-114572200D01*
X148380951Y-114572200D02*
X148476189Y-114619819D01*
X148476189Y-114619819D02*
X148619046Y-114619819D01*
X147952379Y-113953152D02*
X147714284Y-114619819D01*
X147476189Y-113953152D02*
X147714284Y-114619819D01*
X147714284Y-114619819D02*
X147809522Y-114857914D01*
X147809522Y-114857914D02*
X147857141Y-114905533D01*
X147857141Y-114905533D02*
X147952379Y-114953152D01*
X147095236Y-114524580D02*
X147047617Y-114572200D01*
X147047617Y-114572200D02*
X147095236Y-114619819D01*
X147095236Y-114619819D02*
X147142855Y-114572200D01*
X147142855Y-114572200D02*
X147095236Y-114524580D01*
X147095236Y-114524580D02*
X147095236Y-114619819D01*
X146190475Y-114572200D02*
X146285713Y-114619819D01*
X146285713Y-114619819D02*
X146476189Y-114619819D01*
X146476189Y-114619819D02*
X146571427Y-114572200D01*
X146571427Y-114572200D02*
X146619046Y-114524580D01*
X146619046Y-114524580D02*
X146666665Y-114429342D01*
X146666665Y-114429342D02*
X146666665Y-114143628D01*
X146666665Y-114143628D02*
X146619046Y-114048390D01*
X146619046Y-114048390D02*
X146571427Y-114000771D01*
X146571427Y-114000771D02*
X146476189Y-113953152D01*
X146476189Y-113953152D02*
X146285713Y-113953152D01*
X146285713Y-113953152D02*
X146190475Y-114000771D01*
X145619046Y-114619819D02*
X145714284Y-114572200D01*
X145714284Y-114572200D02*
X145761903Y-114524580D01*
X145761903Y-114524580D02*
X145809522Y-114429342D01*
X145809522Y-114429342D02*
X145809522Y-114143628D01*
X145809522Y-114143628D02*
X145761903Y-114048390D01*
X145761903Y-114048390D02*
X145714284Y-114000771D01*
X145714284Y-114000771D02*
X145619046Y-113953152D01*
X145619046Y-113953152D02*
X145476189Y-113953152D01*
X145476189Y-113953152D02*
X145380951Y-114000771D01*
X145380951Y-114000771D02*
X145333332Y-114048390D01*
X145333332Y-114048390D02*
X145285713Y-114143628D01*
X145285713Y-114143628D02*
X145285713Y-114429342D01*
X145285713Y-114429342D02*
X145333332Y-114524580D01*
X145333332Y-114524580D02*
X145380951Y-114572200D01*
X145380951Y-114572200D02*
X145476189Y-114619819D01*
X145476189Y-114619819D02*
X145619046Y-114619819D01*
X144857141Y-114619819D02*
X144857141Y-113953152D01*
X144857141Y-114048390D02*
X144809522Y-114000771D01*
X144809522Y-114000771D02*
X144714284Y-113953152D01*
X144714284Y-113953152D02*
X144571427Y-113953152D01*
X144571427Y-113953152D02*
X144476189Y-114000771D01*
X144476189Y-114000771D02*
X144428570Y-114096009D01*
X144428570Y-114096009D02*
X144428570Y-114619819D01*
X144428570Y-114096009D02*
X144380951Y-114000771D01*
X144380951Y-114000771D02*
X144285713Y-113953152D01*
X144285713Y-113953152D02*
X144142856Y-113953152D01*
X144142856Y-113953152D02*
X144047617Y-114000771D01*
X144047617Y-114000771D02*
X143999998Y-114096009D01*
X143999998Y-114096009D02*
X143999998Y-114619819D01*
X146071428Y-87869819D02*
X146071428Y-87203152D01*
X146071428Y-87393628D02*
X146023809Y-87298390D01*
X146023809Y-87298390D02*
X145976190Y-87250771D01*
X145976190Y-87250771D02*
X145880952Y-87203152D01*
X145880952Y-87203152D02*
X145785714Y-87203152D01*
X145071428Y-87822200D02*
X145166666Y-87869819D01*
X145166666Y-87869819D02*
X145357142Y-87869819D01*
X145357142Y-87869819D02*
X145452380Y-87822200D01*
X145452380Y-87822200D02*
X145499999Y-87726961D01*
X145499999Y-87726961D02*
X145499999Y-87346009D01*
X145499999Y-87346009D02*
X145452380Y-87250771D01*
X145452380Y-87250771D02*
X145357142Y-87203152D01*
X145357142Y-87203152D02*
X145166666Y-87203152D01*
X145166666Y-87203152D02*
X145071428Y-87250771D01*
X145071428Y-87250771D02*
X145023809Y-87346009D01*
X145023809Y-87346009D02*
X145023809Y-87441247D01*
X145023809Y-87441247D02*
X145499999Y-87536485D01*
X144690475Y-87203152D02*
X144452380Y-87869819D01*
X144452380Y-87869819D02*
X144214285Y-87203152D01*
X143833332Y-87774580D02*
X143785713Y-87822200D01*
X143785713Y-87822200D02*
X143833332Y-87869819D01*
X143833332Y-87869819D02*
X143880951Y-87822200D01*
X143880951Y-87822200D02*
X143833332Y-87774580D01*
X143833332Y-87774580D02*
X143833332Y-87869819D01*
X143166666Y-86869819D02*
X143071428Y-86869819D01*
X143071428Y-86869819D02*
X142976190Y-86917438D01*
X142976190Y-86917438D02*
X142928571Y-86965057D01*
X142928571Y-86965057D02*
X142880952Y-87060295D01*
X142880952Y-87060295D02*
X142833333Y-87250771D01*
X142833333Y-87250771D02*
X142833333Y-87488866D01*
X142833333Y-87488866D02*
X142880952Y-87679342D01*
X142880952Y-87679342D02*
X142928571Y-87774580D01*
X142928571Y-87774580D02*
X142976190Y-87822200D01*
X142976190Y-87822200D02*
X143071428Y-87869819D01*
X143071428Y-87869819D02*
X143166666Y-87869819D01*
X143166666Y-87869819D02*
X143261904Y-87822200D01*
X143261904Y-87822200D02*
X143309523Y-87774580D01*
X143309523Y-87774580D02*
X143357142Y-87679342D01*
X143357142Y-87679342D02*
X143404761Y-87488866D01*
X143404761Y-87488866D02*
X143404761Y-87250771D01*
X143404761Y-87250771D02*
X143357142Y-87060295D01*
X143357142Y-87060295D02*
X143309523Y-86965057D01*
X143309523Y-86965057D02*
X143261904Y-86917438D01*
X143261904Y-86917438D02*
X143166666Y-86869819D01*
X141880952Y-87869819D02*
X142452380Y-87869819D01*
X142166666Y-87869819D02*
X142166666Y-86869819D01*
X142166666Y-86869819D02*
X142261904Y-87012676D01*
X142261904Y-87012676D02*
X142357142Y-87107914D01*
X142357142Y-87107914D02*
X142452380Y-87155533D01*
D11*
%TO.C,G\u002A\u002A\u002A*%
G36*
X157505650Y-86686175D02*
G01*
X157514201Y-86686214D01*
X157522288Y-86686293D01*
X157529636Y-86686410D01*
X157535970Y-86686566D01*
X157541017Y-86686762D01*
X157570695Y-86688694D01*
X157604827Y-86692095D01*
X157638192Y-86696743D01*
X157670923Y-86702668D01*
X157703152Y-86709900D01*
X157735012Y-86718468D01*
X157766635Y-86728405D01*
X157798152Y-86739739D01*
X157829698Y-86752500D01*
X157840948Y-86757460D01*
X157855068Y-86764064D01*
X157869856Y-86771349D01*
X157885016Y-86779156D01*
X157900246Y-86787328D01*
X157915249Y-86795706D01*
X157929724Y-86804135D01*
X157943373Y-86812454D01*
X157966824Y-86827662D01*
X157996264Y-86848389D01*
X158024687Y-86870291D01*
X158052070Y-86893344D01*
X158078391Y-86917521D01*
X158103626Y-86942798D01*
X158127752Y-86969150D01*
X158150748Y-86996551D01*
X158172591Y-87024977D01*
X158193257Y-87054403D01*
X158212724Y-87084803D01*
X158230969Y-87116153D01*
X158247970Y-87148427D01*
X158249756Y-87152014D01*
X158259706Y-87172717D01*
X158268723Y-87192814D01*
X158276975Y-87212708D01*
X158284631Y-87232805D01*
X158291858Y-87253508D01*
X158296180Y-87266772D01*
X158304931Y-87296196D01*
X158312481Y-87325552D01*
X158318869Y-87355057D01*
X158324137Y-87384929D01*
X158328323Y-87415383D01*
X158331469Y-87446637D01*
X158333614Y-87478906D01*
X158333768Y-87482454D01*
X158333972Y-87489208D01*
X158334123Y-87497051D01*
X158334224Y-87505692D01*
X158334273Y-87514839D01*
X158334271Y-87524202D01*
X158334219Y-87533489D01*
X158334118Y-87542410D01*
X158333966Y-87550673D01*
X158333765Y-87557989D01*
X158333515Y-87564065D01*
X158331532Y-87593508D01*
X158327777Y-87629491D01*
X158322582Y-87664876D01*
X158315942Y-87699678D01*
X158307851Y-87733914D01*
X158298303Y-87767600D01*
X158287293Y-87800750D01*
X158274815Y-87833382D01*
X158260862Y-87865510D01*
X158245430Y-87897151D01*
X158228513Y-87928320D01*
X158210105Y-87959034D01*
X158190200Y-87989308D01*
X158168792Y-88019157D01*
X158168029Y-88020176D01*
X158145351Y-88049179D01*
X158121754Y-88076923D01*
X158097243Y-88103405D01*
X158071823Y-88128621D01*
X158045501Y-88152565D01*
X158018282Y-88175234D01*
X157990173Y-88196623D01*
X157961178Y-88216728D01*
X157931304Y-88235543D01*
X157900557Y-88253065D01*
X157868943Y-88269290D01*
X157836467Y-88284212D01*
X157803135Y-88297827D01*
X157799656Y-88299155D01*
X157791683Y-88302143D01*
X157784232Y-88304857D01*
X157777457Y-88307245D01*
X157771512Y-88309253D01*
X157766551Y-88310830D01*
X157762729Y-88311923D01*
X157760200Y-88312478D01*
X157758788Y-88312665D01*
X157753287Y-88313089D01*
X157747483Y-88313144D01*
X157741987Y-88312839D01*
X157737405Y-88312181D01*
X157734784Y-88311530D01*
X157727848Y-88308764D01*
X157721713Y-88304701D01*
X157716463Y-88299416D01*
X157712177Y-88292988D01*
X157708940Y-88285492D01*
X157706872Y-88279332D01*
X157706939Y-88254326D01*
X157706946Y-88251970D01*
X157706974Y-88245104D01*
X157707013Y-88237477D01*
X157707063Y-88229219D01*
X157707123Y-88220459D01*
X157707190Y-88211325D01*
X157707264Y-88201947D01*
X157707344Y-88192454D01*
X157707428Y-88182975D01*
X157707515Y-88173639D01*
X157707604Y-88164574D01*
X157707693Y-88155911D01*
X157707781Y-88147778D01*
X157707868Y-88140303D01*
X157707951Y-88133617D01*
X157708030Y-88127849D01*
X157708103Y-88123126D01*
X157708169Y-88119579D01*
X157708227Y-88117336D01*
X157708275Y-88116527D01*
X157708423Y-88116513D01*
X157709775Y-88116650D01*
X157712352Y-88117008D01*
X157715927Y-88117554D01*
X157720274Y-88118254D01*
X157725166Y-88119073D01*
X157728598Y-88119655D01*
X157735526Y-88120794D01*
X157741442Y-88121692D01*
X157746714Y-88122384D01*
X157751706Y-88122906D01*
X157756784Y-88123292D01*
X157762312Y-88123578D01*
X157768656Y-88123798D01*
X157776181Y-88123989D01*
X157795109Y-88124039D01*
X157821014Y-88122834D01*
X157846468Y-88120143D01*
X157871496Y-88115965D01*
X157885201Y-88112591D01*
X157899163Y-88107799D01*
X157912695Y-88101794D01*
X157925629Y-88094679D01*
X157937794Y-88086557D01*
X157949022Y-88077532D01*
X157959143Y-88067705D01*
X157967988Y-88057181D01*
X157969414Y-88055254D01*
X157974398Y-88047920D01*
X157978866Y-88040257D01*
X157983042Y-88031855D01*
X157987151Y-88022308D01*
X157988456Y-88019097D01*
X157993182Y-88007759D01*
X157997616Y-87997640D01*
X158001874Y-87988517D01*
X158006073Y-87980165D01*
X158010328Y-87972361D01*
X158014753Y-87964883D01*
X158019466Y-87957507D01*
X158024581Y-87950010D01*
X158027469Y-87945952D01*
X158035967Y-87934730D01*
X158044259Y-87924908D01*
X158052442Y-87916390D01*
X158060611Y-87909080D01*
X158068863Y-87902884D01*
X158077294Y-87897706D01*
X158078488Y-87897039D01*
X158086885Y-87891697D01*
X158094538Y-87885685D01*
X158101242Y-87879197D01*
X158106793Y-87872428D01*
X158110989Y-87865572D01*
X158112112Y-87863055D01*
X158113136Y-87858937D01*
X158112796Y-87855424D01*
X158111064Y-87852473D01*
X158107910Y-87850045D01*
X158103304Y-87848098D01*
X158097218Y-87846592D01*
X158096044Y-87846374D01*
X158089916Y-87845438D01*
X158084190Y-87844983D01*
X158078393Y-87845007D01*
X158072053Y-87845509D01*
X158064697Y-87846488D01*
X158057684Y-87847651D01*
X158051266Y-87849000D01*
X158045463Y-87850614D01*
X158039797Y-87852644D01*
X158033792Y-87855243D01*
X158026970Y-87858566D01*
X158019869Y-87862313D01*
X158008487Y-87869007D01*
X157997810Y-87876147D01*
X157988120Y-87883537D01*
X157979703Y-87890983D01*
X157975753Y-87894860D01*
X157970213Y-87900616D01*
X157965196Y-87906308D01*
X157960469Y-87912234D01*
X157955797Y-87918691D01*
X157950949Y-87925977D01*
X157945690Y-87934389D01*
X157940258Y-87943029D01*
X157934034Y-87952212D01*
X157927877Y-87960454D01*
X157921563Y-87968051D01*
X157914866Y-87975302D01*
X157914404Y-87975778D01*
X157904297Y-87985452D01*
X157894096Y-87993801D01*
X157883516Y-88001039D01*
X157872274Y-88007380D01*
X157867370Y-88009796D01*
X157857502Y-88014032D01*
X157847797Y-88017271D01*
X157837940Y-88019578D01*
X157827616Y-88021020D01*
X157816510Y-88021662D01*
X157804307Y-88021570D01*
X157798464Y-88021334D01*
X157782718Y-88020267D01*
X157768115Y-88018584D01*
X157754421Y-88016238D01*
X157741401Y-88013185D01*
X157728819Y-88009380D01*
X157716443Y-88004778D01*
X157715660Y-88004459D01*
X157712126Y-88002987D01*
X157709178Y-88001708D01*
X157707105Y-88000750D01*
X157706195Y-88000241D01*
X157706177Y-88000220D01*
X157705811Y-87999153D01*
X157705273Y-87996885D01*
X157704632Y-87993732D01*
X157703958Y-87990014D01*
X157701624Y-87978109D01*
X157697270Y-87961515D01*
X157691812Y-87946007D01*
X157685240Y-87931559D01*
X157677541Y-87918150D01*
X157668705Y-87905755D01*
X157658720Y-87894351D01*
X157656772Y-87892303D01*
X157654828Y-87890168D01*
X157653565Y-87888667D01*
X157653193Y-87888039D01*
X157653581Y-87887946D01*
X157655292Y-87887689D01*
X157658115Y-87887323D01*
X157661781Y-87886882D01*
X157666021Y-87886402D01*
X157678346Y-87884906D01*
X157693424Y-87882745D01*
X157708759Y-87880215D01*
X157724049Y-87877375D01*
X157738989Y-87874286D01*
X157753277Y-87871008D01*
X157766610Y-87867601D01*
X157778683Y-87864124D01*
X157790951Y-87860090D01*
X157807970Y-87853721D01*
X157825230Y-87846433D01*
X157842370Y-87838397D01*
X157859029Y-87829785D01*
X157874848Y-87820768D01*
X157889465Y-87811516D01*
X157898156Y-87805480D01*
X157913760Y-87793433D01*
X157928243Y-87780553D01*
X157941659Y-87766769D01*
X157954062Y-87752010D01*
X157965504Y-87736204D01*
X157976040Y-87719282D01*
X157985722Y-87701172D01*
X157994603Y-87681804D01*
X158002738Y-87661106D01*
X158009660Y-87640686D01*
X158015770Y-87619485D01*
X158020867Y-87597962D01*
X158024978Y-87575953D01*
X158028130Y-87553293D01*
X158030349Y-87529818D01*
X158031662Y-87505363D01*
X158032096Y-87479763D01*
X158031922Y-87464791D01*
X158031360Y-87450675D01*
X158030374Y-87437482D01*
X158028929Y-87424910D01*
X158026991Y-87412655D01*
X158024523Y-87400415D01*
X158021492Y-87387888D01*
X158017005Y-87372371D01*
X158009783Y-87352143D01*
X158001175Y-87332442D01*
X157991248Y-87313395D01*
X157980068Y-87295126D01*
X157967702Y-87277761D01*
X157954217Y-87261425D01*
X157951867Y-87258770D01*
X157949721Y-87256320D01*
X157948148Y-87254499D01*
X157947383Y-87253575D01*
X157947289Y-87253278D01*
X157947477Y-87251605D01*
X157948253Y-87248784D01*
X157949567Y-87245012D01*
X157953226Y-87234335D01*
X157957200Y-87220205D01*
X157960499Y-87205360D01*
X157963019Y-87190225D01*
X157963323Y-87187702D01*
X157963806Y-87181851D01*
X157964162Y-87174934D01*
X157964389Y-87167275D01*
X157964487Y-87159196D01*
X157964456Y-87151021D01*
X157964297Y-87143072D01*
X157964008Y-87135674D01*
X157963590Y-87129147D01*
X157963043Y-87123817D01*
X157962828Y-87122210D01*
X157960349Y-87106235D01*
X157957297Y-87090845D01*
X157953566Y-87075596D01*
X157949046Y-87060042D01*
X157943630Y-87043736D01*
X157942885Y-87041627D01*
X157941531Y-87037894D01*
X157940371Y-87034821D01*
X157939511Y-87032679D01*
X157939054Y-87031743D01*
X157937830Y-87031081D01*
X157935290Y-87030391D01*
X157931796Y-87029771D01*
X157927666Y-87029270D01*
X157923216Y-87028931D01*
X157918763Y-87028802D01*
X157918589Y-87028802D01*
X157911644Y-87029000D01*
X157904495Y-87029626D01*
X157897026Y-87030712D01*
X157889121Y-87032295D01*
X157880665Y-87034406D01*
X157871542Y-87037080D01*
X157861635Y-87040351D01*
X157850830Y-87044253D01*
X157839010Y-87048819D01*
X157826060Y-87054083D01*
X157811864Y-87060080D01*
X157809036Y-87061298D01*
X157798090Y-87066108D01*
X157788101Y-87070685D01*
X157778792Y-87075177D01*
X157769890Y-87079734D01*
X157761120Y-87084503D01*
X157752209Y-87089631D01*
X157742882Y-87095268D01*
X157732864Y-87101561D01*
X157721882Y-87108658D01*
X157708991Y-87117078D01*
X157692584Y-87112887D01*
X157665182Y-87106422D01*
X157634871Y-87100512D01*
X157604081Y-87095805D01*
X157572605Y-87092269D01*
X157540236Y-87089873D01*
X157539300Y-87089824D01*
X157534586Y-87089654D01*
X157528631Y-87089529D01*
X157521670Y-87089447D01*
X157513934Y-87089405D01*
X157505659Y-87089403D01*
X157497077Y-87089437D01*
X157488422Y-87089508D01*
X157479928Y-87089612D01*
X157471829Y-87089748D01*
X157464357Y-87089914D01*
X157457747Y-87090109D01*
X157452232Y-87090330D01*
X157448046Y-87090576D01*
X157425733Y-87092491D01*
X157400971Y-87095256D01*
X157377030Y-87098661D01*
X157353563Y-87102762D01*
X157330224Y-87107615D01*
X157306665Y-87113275D01*
X157306115Y-87113415D01*
X157301551Y-87114542D01*
X157297516Y-87115474D01*
X157294256Y-87116160D01*
X157292015Y-87116549D01*
X157291039Y-87116587D01*
X157290620Y-87116328D01*
X157288995Y-87115311D01*
X157286317Y-87113628D01*
X157282747Y-87111381D01*
X157278447Y-87108673D01*
X157273578Y-87105603D01*
X157268301Y-87102274D01*
X157260191Y-87097198D01*
X157247987Y-87089750D01*
X157236565Y-87083050D01*
X157225655Y-87076959D01*
X157214989Y-87071336D01*
X157204295Y-87066040D01*
X157193305Y-87060930D01*
X157181749Y-87055867D01*
X157169358Y-87050710D01*
X157167464Y-87049941D01*
X157154645Y-87044912D01*
X157142938Y-87040646D01*
X157132156Y-87037083D01*
X157122114Y-87034165D01*
X157112626Y-87031835D01*
X157103504Y-87030033D01*
X157098690Y-87029361D01*
X157092268Y-87028835D01*
X157085617Y-87028628D01*
X157079177Y-87028740D01*
X157073387Y-87029173D01*
X157068686Y-87029928D01*
X157062776Y-87031278D01*
X157058804Y-87042000D01*
X157053036Y-87058650D01*
X157046398Y-87081615D01*
X157041309Y-87104516D01*
X157037774Y-87127333D01*
X157037484Y-87130049D01*
X157037018Y-87136221D01*
X157036676Y-87143322D01*
X157036460Y-87150995D01*
X157036374Y-87158886D01*
X157036419Y-87166641D01*
X157036598Y-87173905D01*
X157036914Y-87180322D01*
X157037369Y-87185538D01*
X157039218Y-87198712D01*
X157042120Y-87213824D01*
X157045734Y-87228169D01*
X157049980Y-87241399D01*
X157051269Y-87244982D01*
X157052394Y-87248137D01*
X157053227Y-87250505D01*
X157053649Y-87251745D01*
X157053446Y-87252926D01*
X157052099Y-87255022D01*
X157049536Y-87257995D01*
X157049093Y-87258475D01*
X157044932Y-87263214D01*
X157040240Y-87268892D01*
X157035283Y-87275167D01*
X157030329Y-87281695D01*
X157025644Y-87288132D01*
X157021494Y-87294135D01*
X157017504Y-87300253D01*
X157006411Y-87319142D01*
X156996735Y-87338685D01*
X156988474Y-87358885D01*
X156981626Y-87379746D01*
X156976192Y-87401272D01*
X156972169Y-87423465D01*
X156969557Y-87446330D01*
X156969306Y-87449802D01*
X156968914Y-87458064D01*
X156968694Y-87467471D01*
X156968640Y-87477745D01*
X156968748Y-87488613D01*
X156969011Y-87499797D01*
X156969424Y-87511023D01*
X156969981Y-87522014D01*
X156970677Y-87532495D01*
X156971506Y-87542189D01*
X156972284Y-87549653D01*
X156975456Y-87573262D01*
X156979644Y-87596382D01*
X156984811Y-87618900D01*
X156990920Y-87640705D01*
X156997935Y-87661685D01*
X157005819Y-87681727D01*
X157014537Y-87700721D01*
X157024052Y-87718553D01*
X157034327Y-87735113D01*
X157038259Y-87740798D01*
X157049827Y-87755756D01*
X157062755Y-87770148D01*
X157076942Y-87783879D01*
X157092285Y-87796855D01*
X157108683Y-87808980D01*
X157126034Y-87820161D01*
X157143544Y-87830123D01*
X157162399Y-87839754D01*
X157181681Y-87848553D01*
X157201086Y-87856391D01*
X157220311Y-87863139D01*
X157239055Y-87868665D01*
X157243355Y-87869775D01*
X157254795Y-87872505D01*
X157267276Y-87875211D01*
X157280431Y-87877822D01*
X157293890Y-87880272D01*
X157307287Y-87882491D01*
X157320252Y-87884412D01*
X157332417Y-87885966D01*
X157332616Y-87885989D01*
X157337296Y-87886541D01*
X157341465Y-87887050D01*
X157344862Y-87887483D01*
X157347228Y-87887807D01*
X157348301Y-87887989D01*
X157348362Y-87888015D01*
X157348242Y-87888745D01*
X157347027Y-87890258D01*
X157344843Y-87892395D01*
X157343281Y-87893893D01*
X157340440Y-87896828D01*
X157337361Y-87900196D01*
X157334483Y-87903528D01*
X157334090Y-87904001D01*
X157325541Y-87915349D01*
X157318045Y-87927475D01*
X157311578Y-87940455D01*
X157306114Y-87954360D01*
X157301626Y-87969266D01*
X157298090Y-87985245D01*
X157295480Y-88002372D01*
X157293770Y-88020720D01*
X157293725Y-88021543D01*
X157293625Y-88024533D01*
X157293531Y-88028988D01*
X157293442Y-88034840D01*
X157293359Y-88042019D01*
X157293283Y-88050457D01*
X157293214Y-88060087D01*
X157293153Y-88070839D01*
X157293099Y-88082645D01*
X157293054Y-88095438D01*
X157293017Y-88109148D01*
X157292990Y-88123707D01*
X157292972Y-88139047D01*
X157292963Y-88155099D01*
X157292962Y-88160360D01*
X157292960Y-88176428D01*
X157292958Y-88191032D01*
X157292953Y-88204247D01*
X157292942Y-88216147D01*
X157292923Y-88226808D01*
X157292894Y-88236303D01*
X157292851Y-88244710D01*
X157292793Y-88252101D01*
X157292716Y-88258553D01*
X157292618Y-88264140D01*
X157292497Y-88268937D01*
X157292350Y-88273020D01*
X157292175Y-88276462D01*
X157291968Y-88279339D01*
X157291728Y-88281727D01*
X157291452Y-88283700D01*
X157291137Y-88285332D01*
X157290780Y-88286700D01*
X157290380Y-88287877D01*
X157289933Y-88288939D01*
X157289438Y-88289961D01*
X157288890Y-88291018D01*
X157288289Y-88292184D01*
X157287167Y-88294203D01*
X157283900Y-88298817D01*
X157279954Y-88303144D01*
X157275717Y-88306785D01*
X157271579Y-88309340D01*
X157271392Y-88309428D01*
X157264594Y-88311811D01*
X157256915Y-88313080D01*
X157248586Y-88313214D01*
X157239836Y-88312193D01*
X157238751Y-88311963D01*
X157235389Y-88311056D01*
X157230854Y-88309654D01*
X157225334Y-88307823D01*
X157219015Y-88305631D01*
X157212086Y-88303144D01*
X157204735Y-88300430D01*
X157197149Y-88297554D01*
X157189515Y-88294585D01*
X157182022Y-88291588D01*
X157165727Y-88284771D01*
X157133293Y-88269958D01*
X157101703Y-88253832D01*
X157070964Y-88236398D01*
X157041083Y-88217662D01*
X157012067Y-88197630D01*
X156983923Y-88176309D01*
X156956659Y-88153703D01*
X156930281Y-88129818D01*
X156904798Y-88104661D01*
X156880215Y-88078237D01*
X156856540Y-88050552D01*
X156833781Y-88021612D01*
X156811944Y-87991422D01*
X156795356Y-87966579D01*
X156776682Y-87936083D01*
X156759434Y-87904970D01*
X156743621Y-87873266D01*
X156729253Y-87840998D01*
X156716340Y-87808193D01*
X156704892Y-87774877D01*
X156694917Y-87741077D01*
X156686427Y-87706820D01*
X156679430Y-87672131D01*
X156673936Y-87637037D01*
X156669955Y-87601566D01*
X156669751Y-87599295D01*
X156669056Y-87591258D01*
X156668475Y-87583923D01*
X156668000Y-87577038D01*
X156667619Y-87570351D01*
X156667324Y-87563612D01*
X156667104Y-87556567D01*
X156666950Y-87548967D01*
X156666852Y-87540559D01*
X156666800Y-87531092D01*
X156666783Y-87520314D01*
X156666804Y-87510364D01*
X156666916Y-87497352D01*
X156667139Y-87485444D01*
X156667489Y-87474374D01*
X156667981Y-87463873D01*
X156668630Y-87453674D01*
X156669452Y-87443509D01*
X156670462Y-87433111D01*
X156671676Y-87422212D01*
X156673109Y-87410545D01*
X156676655Y-87385640D01*
X156682935Y-87350619D01*
X156690664Y-87316152D01*
X156699857Y-87282188D01*
X156710528Y-87248675D01*
X156722690Y-87215564D01*
X156736359Y-87182803D01*
X156738810Y-87177395D01*
X156742129Y-87170323D01*
X156745909Y-87162473D01*
X156749994Y-87154155D01*
X156754228Y-87145680D01*
X156758455Y-87137360D01*
X156762521Y-87129505D01*
X156766269Y-87122428D01*
X156769544Y-87116439D01*
X156787848Y-87085184D01*
X156807636Y-87054362D01*
X156828536Y-87024637D01*
X156850544Y-86996012D01*
X156873654Y-86968493D01*
X156897863Y-86942084D01*
X156923165Y-86916789D01*
X156949556Y-86892614D01*
X156977032Y-86869562D01*
X157005587Y-86847638D01*
X157035219Y-86826848D01*
X157065920Y-86807194D01*
X157097688Y-86788683D01*
X157116713Y-86778436D01*
X157148702Y-86762610D01*
X157181197Y-86748262D01*
X157214195Y-86735392D01*
X157247693Y-86724003D01*
X157281687Y-86714094D01*
X157316173Y-86705667D01*
X157351150Y-86698722D01*
X157386613Y-86693261D01*
X157422558Y-86689285D01*
X157458983Y-86686794D01*
X157459958Y-86686750D01*
X157465533Y-86686558D01*
X157472290Y-86686404D01*
X157479955Y-86686289D01*
X157488253Y-86686213D01*
X157496909Y-86686174D01*
X157505650Y-86686175D01*
G37*
D12*
%TO.C,REF\u002A\u002A*%
X150537275Y-97154824D02*
X150621095Y-97599448D01*
X151239667Y-97854444D01*
X151610707Y-97602139D01*
X151684144Y-97552399D01*
X151781499Y-97487111D01*
X151865787Y-97431347D01*
X151932631Y-97387971D01*
X151977654Y-97359846D01*
X151996478Y-97349835D01*
X152008039Y-97356954D01*
X152042596Y-97386787D01*
X152094894Y-97435745D01*
X152160500Y-97499333D01*
X152234983Y-97573056D01*
X152313913Y-97652418D01*
X152392856Y-97732924D01*
X152467384Y-97810078D01*
X152533063Y-97879386D01*
X152585463Y-97936350D01*
X152620153Y-97976477D01*
X152632701Y-97995270D01*
X152629782Y-98003344D01*
X152609571Y-98039362D01*
X152572663Y-98098637D01*
X152522050Y-98176523D01*
X152460725Y-98268374D01*
X152391679Y-98369543D01*
X152353787Y-98424719D01*
X152288606Y-98520777D01*
X152232723Y-98604610D01*
X152189117Y-98671670D01*
X152160769Y-98717412D01*
X152150657Y-98737289D01*
X152150823Y-98738390D01*
X152159743Y-98763587D01*
X152180206Y-98815040D01*
X152209360Y-98886028D01*
X152244353Y-98969828D01*
X152282332Y-99059721D01*
X152320445Y-99148984D01*
X152355839Y-99230896D01*
X152385662Y-99298736D01*
X152407061Y-99345783D01*
X152417184Y-99365315D01*
X152423174Y-99367048D01*
X152459566Y-99374862D01*
X152524427Y-99387808D01*
X152612565Y-99404872D01*
X152718787Y-99425044D01*
X152837902Y-99447311D01*
X152900683Y-99459116D01*
X153015912Y-99481641D01*
X153116662Y-99502443D01*
X153197426Y-99520328D01*
X153252698Y-99534101D01*
X153276971Y-99542567D01*
X153281331Y-99550959D01*
X153288563Y-99591965D01*
X153294246Y-99660261D01*
X153298382Y-99749422D01*
X153300977Y-99853021D01*
X153302036Y-99964633D01*
X153301561Y-100077831D01*
X153299559Y-100186189D01*
X153296033Y-100283282D01*
X153290987Y-100362683D01*
X153284427Y-100417965D01*
X153276356Y-100442703D01*
X153271458Y-100445493D01*
X153234930Y-100457462D01*
X153171565Y-100473298D01*
X153088686Y-100491267D01*
X152993618Y-100509634D01*
X152961542Y-100515484D01*
X152813393Y-100542691D01*
X152696961Y-100564556D01*
X152608209Y-100581986D01*
X152543103Y-100595889D01*
X152497606Y-100607170D01*
X152467682Y-100616736D01*
X152449294Y-100625494D01*
X152438407Y-100634350D01*
X152437142Y-100635836D01*
X152419338Y-100666824D01*
X152392994Y-100723527D01*
X152360661Y-100799292D01*
X152324893Y-100887467D01*
X152288244Y-100981400D01*
X152253266Y-101074440D01*
X152222513Y-101159934D01*
X152198538Y-101231229D01*
X152183895Y-101281675D01*
X152181136Y-101304619D01*
X152182981Y-101307596D01*
X152202075Y-101336386D01*
X152237984Y-101389488D01*
X152287378Y-101462010D01*
X152346927Y-101549060D01*
X152413303Y-101645747D01*
X152431520Y-101672349D01*
X152495577Y-101767768D01*
X152550937Y-101853105D01*
X152594439Y-101923298D01*
X152622924Y-101973287D01*
X152633232Y-101998009D01*
X152631011Y-102004509D01*
X152607858Y-102036537D01*
X152562177Y-102088838D01*
X152497241Y-102157892D01*
X152416319Y-102240179D01*
X152322685Y-102332179D01*
X152269165Y-102383674D01*
X152184542Y-102463876D01*
X152110475Y-102532571D01*
X152050941Y-102586145D01*
X152009917Y-102620978D01*
X151991381Y-102633456D01*
X151978646Y-102628831D01*
X151939436Y-102606950D01*
X151882495Y-102571166D01*
X151815250Y-102526010D01*
X151767438Y-102493058D01*
X151671985Y-102427620D01*
X151570125Y-102358121D01*
X151477088Y-102294968D01*
X151294832Y-102171693D01*
X151141841Y-102254413D01*
X151105817Y-102273506D01*
X151040303Y-102306165D01*
X150989640Y-102328712D01*
X150962564Y-102337119D01*
X150953703Y-102326323D01*
X150931699Y-102285216D01*
X150899199Y-102217442D01*
X150858010Y-102127302D01*
X150809942Y-102019098D01*
X150756802Y-101897130D01*
X150700399Y-101765701D01*
X150642542Y-101629111D01*
X150585038Y-101491660D01*
X150529697Y-101357651D01*
X150478326Y-101231384D01*
X150432735Y-101117161D01*
X150394732Y-101019283D01*
X150366124Y-100942050D01*
X150348721Y-100889764D01*
X150344331Y-100866726D01*
X150344628Y-100866053D01*
X150365077Y-100844756D01*
X150407850Y-100811401D01*
X150464117Y-100772904D01*
X150481877Y-100761149D01*
X150617014Y-100649628D01*
X150728856Y-100516799D01*
X150814755Y-100368191D01*
X150872062Y-100209333D01*
X150898131Y-100045753D01*
X150890313Y-99882981D01*
X150858644Y-99738208D01*
X150801782Y-99592017D01*
X150718888Y-99461596D01*
X150605131Y-99337706D01*
X150560433Y-99298128D01*
X150415935Y-99200616D01*
X150259838Y-99134943D01*
X150096667Y-99100523D01*
X149930943Y-99096767D01*
X149767192Y-99123087D01*
X149609936Y-99178896D01*
X149463698Y-99263607D01*
X149333004Y-99376630D01*
X149222374Y-99517380D01*
X149201105Y-99552235D01*
X149128810Y-99711548D01*
X149090415Y-99877445D01*
X149084914Y-100045630D01*
X149111301Y-100211806D01*
X149168570Y-100371677D01*
X149255717Y-100520946D01*
X149371736Y-100655316D01*
X149515622Y-100770492D01*
X149520294Y-100773595D01*
X149575964Y-100812826D01*
X149617689Y-100846179D01*
X149636746Y-100866726D01*
X149634342Y-100882834D01*
X149619391Y-100929737D01*
X149592881Y-101002432D01*
X149556620Y-101096618D01*
X149512416Y-101207991D01*
X149462076Y-101332251D01*
X149407407Y-101465095D01*
X149350218Y-101602220D01*
X149292316Y-101739325D01*
X149235510Y-101872108D01*
X149181606Y-101996267D01*
X149132412Y-102107499D01*
X149089737Y-102201502D01*
X149055387Y-102273975D01*
X149031171Y-102320615D01*
X149018897Y-102337119D01*
X149008689Y-102334884D01*
X148968586Y-102318819D01*
X148909318Y-102290652D01*
X148839619Y-102254413D01*
X148686629Y-102171693D01*
X148504373Y-102294968D01*
X148450527Y-102331472D01*
X148350374Y-102399677D01*
X148250525Y-102467991D01*
X148166211Y-102526010D01*
X148119679Y-102557629D01*
X148059200Y-102596913D01*
X148014357Y-102623805D01*
X147992455Y-102633776D01*
X147983045Y-102629543D01*
X147949031Y-102603614D01*
X147896595Y-102557963D01*
X147830301Y-102497079D01*
X147754713Y-102425454D01*
X147674396Y-102347576D01*
X147593913Y-102267938D01*
X147517829Y-102191028D01*
X147450707Y-102121338D01*
X147397112Y-102063357D01*
X147361608Y-102021577D01*
X147348759Y-102000486D01*
X147349500Y-101996474D01*
X147364793Y-101963813D01*
X147397462Y-101907305D01*
X147444350Y-101832056D01*
X147502301Y-101743168D01*
X147568157Y-101645747D01*
X147586627Y-101618875D01*
X147651482Y-101524316D01*
X147708609Y-101440720D01*
X147754678Y-101372977D01*
X147786359Y-101325979D01*
X147800324Y-101304619D01*
X147800668Y-101303704D01*
X147796546Y-101277571D01*
X147780807Y-101224633D01*
X147756004Y-101151540D01*
X147724689Y-101064945D01*
X147689417Y-100971501D01*
X147652740Y-100877858D01*
X147617212Y-100790670D01*
X147585386Y-100716588D01*
X147559816Y-100662264D01*
X147543053Y-100634350D01*
X147541374Y-100632617D01*
X147529372Y-100623849D01*
X147509103Y-100615008D01*
X147476529Y-100605185D01*
X147427616Y-100593476D01*
X147358327Y-100578973D01*
X147264625Y-100560769D01*
X147142476Y-100537959D01*
X146987842Y-100509634D01*
X146955770Y-100503673D01*
X146863893Y-100485245D01*
X146786607Y-100467785D01*
X146731236Y-100453026D01*
X146705105Y-100442703D01*
X146700733Y-100434090D01*
X146693445Y-100392719D01*
X146687669Y-100324134D01*
X146683410Y-100234761D01*
X146680673Y-100131028D01*
X146679462Y-100019358D01*
X146679782Y-99906180D01*
X146681636Y-99797919D01*
X146685030Y-99701001D01*
X146689967Y-99621852D01*
X146696452Y-99566899D01*
X146704489Y-99542567D01*
X146712696Y-99538972D01*
X146753519Y-99527641D01*
X146822524Y-99511615D01*
X146914203Y-99492088D01*
X147023050Y-99470255D01*
X147143558Y-99447311D01*
X147209357Y-99435052D01*
X147322135Y-99413794D01*
X147419207Y-99395180D01*
X147495382Y-99380221D01*
X147545469Y-99369929D01*
X147564276Y-99365315D01*
X147564983Y-99364364D01*
X147576961Y-99340203D01*
X147599794Y-99289587D01*
X147630630Y-99219231D01*
X147666613Y-99135851D01*
X147704891Y-99046163D01*
X147742609Y-98956882D01*
X147776913Y-98874725D01*
X147804949Y-98806406D01*
X147823864Y-98758641D01*
X147830803Y-98738147D01*
X147827742Y-98730936D01*
X147807372Y-98696621D01*
X147770422Y-98638863D01*
X147719860Y-98562192D01*
X147658657Y-98471141D01*
X147589781Y-98370243D01*
X147551994Y-98314986D01*
X147486782Y-98218108D01*
X147430871Y-98133086D01*
X147387241Y-98064555D01*
X147358877Y-98017153D01*
X147348759Y-97995516D01*
X147355790Y-97983780D01*
X147385197Y-97948711D01*
X147433441Y-97895638D01*
X147496093Y-97829057D01*
X147568725Y-97753467D01*
X147646908Y-97673365D01*
X147726214Y-97593247D01*
X147802213Y-97517611D01*
X147870478Y-97450955D01*
X147926580Y-97397775D01*
X147966090Y-97362569D01*
X147984579Y-97349835D01*
X147994843Y-97354786D01*
X148032530Y-97377750D01*
X148093348Y-97416831D01*
X148172913Y-97469165D01*
X148266843Y-97531889D01*
X148370754Y-97602139D01*
X148741794Y-97854444D01*
X149051080Y-97726946D01*
X149360365Y-97599448D01*
X149444186Y-97154824D01*
X149528006Y-96710200D01*
X150453454Y-96710200D01*
X150537275Y-97154824D01*
G36*
X150537275Y-97154824D02*
G01*
X150621095Y-97599448D01*
X151239667Y-97854444D01*
X151610707Y-97602139D01*
X151684144Y-97552399D01*
X151781499Y-97487111D01*
X151865787Y-97431347D01*
X151932631Y-97387971D01*
X151977654Y-97359846D01*
X151996478Y-97349835D01*
X152008039Y-97356954D01*
X152042596Y-97386787D01*
X152094894Y-97435745D01*
X152160500Y-97499333D01*
X152234983Y-97573056D01*
X152313913Y-97652418D01*
X152392856Y-97732924D01*
X152467384Y-97810078D01*
X152533063Y-97879386D01*
X152585463Y-97936350D01*
X152620153Y-97976477D01*
X152632701Y-97995270D01*
X152629782Y-98003344D01*
X152609571Y-98039362D01*
X152572663Y-98098637D01*
X152522050Y-98176523D01*
X152460725Y-98268374D01*
X152391679Y-98369543D01*
X152353787Y-98424719D01*
X152288606Y-98520777D01*
X152232723Y-98604610D01*
X152189117Y-98671670D01*
X152160769Y-98717412D01*
X152150657Y-98737289D01*
X152150823Y-98738390D01*
X152159743Y-98763587D01*
X152180206Y-98815040D01*
X152209360Y-98886028D01*
X152244353Y-98969828D01*
X152282332Y-99059721D01*
X152320445Y-99148984D01*
X152355839Y-99230896D01*
X152385662Y-99298736D01*
X152407061Y-99345783D01*
X152417184Y-99365315D01*
X152423174Y-99367048D01*
X152459566Y-99374862D01*
X152524427Y-99387808D01*
X152612565Y-99404872D01*
X152718787Y-99425044D01*
X152837902Y-99447311D01*
X152900683Y-99459116D01*
X153015912Y-99481641D01*
X153116662Y-99502443D01*
X153197426Y-99520328D01*
X153252698Y-99534101D01*
X153276971Y-99542567D01*
X153281331Y-99550959D01*
X153288563Y-99591965D01*
X153294246Y-99660261D01*
X153298382Y-99749422D01*
X153300977Y-99853021D01*
X153302036Y-99964633D01*
X153301561Y-100077831D01*
X153299559Y-100186189D01*
X153296033Y-100283282D01*
X153290987Y-100362683D01*
X153284427Y-100417965D01*
X153276356Y-100442703D01*
X153271458Y-100445493D01*
X153234930Y-100457462D01*
X153171565Y-100473298D01*
X153088686Y-100491267D01*
X152993618Y-100509634D01*
X152961542Y-100515484D01*
X152813393Y-100542691D01*
X152696961Y-100564556D01*
X152608209Y-100581986D01*
X152543103Y-100595889D01*
X152497606Y-100607170D01*
X152467682Y-100616736D01*
X152449294Y-100625494D01*
X152438407Y-100634350D01*
X152437142Y-100635836D01*
X152419338Y-100666824D01*
X152392994Y-100723527D01*
X152360661Y-100799292D01*
X152324893Y-100887467D01*
X152288244Y-100981400D01*
X152253266Y-101074440D01*
X152222513Y-101159934D01*
X152198538Y-101231229D01*
X152183895Y-101281675D01*
X152181136Y-101304619D01*
X152182981Y-101307596D01*
X152202075Y-101336386D01*
X152237984Y-101389488D01*
X152287378Y-101462010D01*
X152346927Y-101549060D01*
X152413303Y-101645747D01*
X152431520Y-101672349D01*
X152495577Y-101767768D01*
X152550937Y-101853105D01*
X152594439Y-101923298D01*
X152622924Y-101973287D01*
X152633232Y-101998009D01*
X152631011Y-102004509D01*
X152607858Y-102036537D01*
X152562177Y-102088838D01*
X152497241Y-102157892D01*
X152416319Y-102240179D01*
X152322685Y-102332179D01*
X152269165Y-102383674D01*
X152184542Y-102463876D01*
X152110475Y-102532571D01*
X152050941Y-102586145D01*
X152009917Y-102620978D01*
X151991381Y-102633456D01*
X151978646Y-102628831D01*
X151939436Y-102606950D01*
X151882495Y-102571166D01*
X151815250Y-102526010D01*
X151767438Y-102493058D01*
X151671985Y-102427620D01*
X151570125Y-102358121D01*
X151477088Y-102294968D01*
X151294832Y-102171693D01*
X151141841Y-102254413D01*
X151105817Y-102273506D01*
X151040303Y-102306165D01*
X150989640Y-102328712D01*
X150962564Y-102337119D01*
X150953703Y-102326323D01*
X150931699Y-102285216D01*
X150899199Y-102217442D01*
X150858010Y-102127302D01*
X150809942Y-102019098D01*
X150756802Y-101897130D01*
X150700399Y-101765701D01*
X150642542Y-101629111D01*
X150585038Y-101491660D01*
X150529697Y-101357651D01*
X150478326Y-101231384D01*
X150432735Y-101117161D01*
X150394732Y-101019283D01*
X150366124Y-100942050D01*
X150348721Y-100889764D01*
X150344331Y-100866726D01*
X150344628Y-100866053D01*
X150365077Y-100844756D01*
X150407850Y-100811401D01*
X150464117Y-100772904D01*
X150481877Y-100761149D01*
X150617014Y-100649628D01*
X150728856Y-100516799D01*
X150814755Y-100368191D01*
X150872062Y-100209333D01*
X150898131Y-100045753D01*
X150890313Y-99882981D01*
X150858644Y-99738208D01*
X150801782Y-99592017D01*
X150718888Y-99461596D01*
X150605131Y-99337706D01*
X150560433Y-99298128D01*
X150415935Y-99200616D01*
X150259838Y-99134943D01*
X150096667Y-99100523D01*
X149930943Y-99096767D01*
X149767192Y-99123087D01*
X149609936Y-99178896D01*
X149463698Y-99263607D01*
X149333004Y-99376630D01*
X149222374Y-99517380D01*
X149201105Y-99552235D01*
X149128810Y-99711548D01*
X149090415Y-99877445D01*
X149084914Y-100045630D01*
X149111301Y-100211806D01*
X149168570Y-100371677D01*
X149255717Y-100520946D01*
X149371736Y-100655316D01*
X149515622Y-100770492D01*
X149520294Y-100773595D01*
X149575964Y-100812826D01*
X149617689Y-100846179D01*
X149636746Y-100866726D01*
X149634342Y-100882834D01*
X149619391Y-100929737D01*
X149592881Y-101002432D01*
X149556620Y-101096618D01*
X149512416Y-101207991D01*
X149462076Y-101332251D01*
X149407407Y-101465095D01*
X149350218Y-101602220D01*
X149292316Y-101739325D01*
X149235510Y-101872108D01*
X149181606Y-101996267D01*
X149132412Y-102107499D01*
X149089737Y-102201502D01*
X149055387Y-102273975D01*
X149031171Y-102320615D01*
X149018897Y-102337119D01*
X149008689Y-102334884D01*
X148968586Y-102318819D01*
X148909318Y-102290652D01*
X148839619Y-102254413D01*
X148686629Y-102171693D01*
X148504373Y-102294968D01*
X148450527Y-102331472D01*
X148350374Y-102399677D01*
X148250525Y-102467991D01*
X148166211Y-102526010D01*
X148119679Y-102557629D01*
X148059200Y-102596913D01*
X148014357Y-102623805D01*
X147992455Y-102633776D01*
X147983045Y-102629543D01*
X147949031Y-102603614D01*
X147896595Y-102557963D01*
X147830301Y-102497079D01*
X147754713Y-102425454D01*
X147674396Y-102347576D01*
X147593913Y-102267938D01*
X147517829Y-102191028D01*
X147450707Y-102121338D01*
X147397112Y-102063357D01*
X147361608Y-102021577D01*
X147348759Y-102000486D01*
X147349500Y-101996474D01*
X147364793Y-101963813D01*
X147397462Y-101907305D01*
X147444350Y-101832056D01*
X147502301Y-101743168D01*
X147568157Y-101645747D01*
X147586627Y-101618875D01*
X147651482Y-101524316D01*
X147708609Y-101440720D01*
X147754678Y-101372977D01*
X147786359Y-101325979D01*
X147800324Y-101304619D01*
X147800668Y-101303704D01*
X147796546Y-101277571D01*
X147780807Y-101224633D01*
X147756004Y-101151540D01*
X147724689Y-101064945D01*
X147689417Y-100971501D01*
X147652740Y-100877858D01*
X147617212Y-100790670D01*
X147585386Y-100716588D01*
X147559816Y-100662264D01*
X147543053Y-100634350D01*
X147541374Y-100632617D01*
X147529372Y-100623849D01*
X147509103Y-100615008D01*
X147476529Y-100605185D01*
X147427616Y-100593476D01*
X147358327Y-100578973D01*
X147264625Y-100560769D01*
X147142476Y-100537959D01*
X146987842Y-100509634D01*
X146955770Y-100503673D01*
X146863893Y-100485245D01*
X146786607Y-100467785D01*
X146731236Y-100453026D01*
X146705105Y-100442703D01*
X146700733Y-100434090D01*
X146693445Y-100392719D01*
X146687669Y-100324134D01*
X146683410Y-100234761D01*
X146680673Y-100131028D01*
X146679462Y-100019358D01*
X146679782Y-99906180D01*
X146681636Y-99797919D01*
X146685030Y-99701001D01*
X146689967Y-99621852D01*
X146696452Y-99566899D01*
X146704489Y-99542567D01*
X146712696Y-99538972D01*
X146753519Y-99527641D01*
X146822524Y-99511615D01*
X146914203Y-99492088D01*
X147023050Y-99470255D01*
X147143558Y-99447311D01*
X147209357Y-99435052D01*
X147322135Y-99413794D01*
X147419207Y-99395180D01*
X147495382Y-99380221D01*
X147545469Y-99369929D01*
X147564276Y-99365315D01*
X147564983Y-99364364D01*
X147576961Y-99340203D01*
X147599794Y-99289587D01*
X147630630Y-99219231D01*
X147666613Y-99135851D01*
X147704891Y-99046163D01*
X147742609Y-98956882D01*
X147776913Y-98874725D01*
X147804949Y-98806406D01*
X147823864Y-98758641D01*
X147830803Y-98738147D01*
X147827742Y-98730936D01*
X147807372Y-98696621D01*
X147770422Y-98638863D01*
X147719860Y-98562192D01*
X147658657Y-98471141D01*
X147589781Y-98370243D01*
X147551994Y-98314986D01*
X147486782Y-98218108D01*
X147430871Y-98133086D01*
X147387241Y-98064555D01*
X147358877Y-98017153D01*
X147348759Y-97995516D01*
X147355790Y-97983780D01*
X147385197Y-97948711D01*
X147433441Y-97895638D01*
X147496093Y-97829057D01*
X147568725Y-97753467D01*
X147646908Y-97673365D01*
X147726214Y-97593247D01*
X147802213Y-97517611D01*
X147870478Y-97450955D01*
X147926580Y-97397775D01*
X147966090Y-97362569D01*
X147984579Y-97349835D01*
X147994843Y-97354786D01*
X148032530Y-97377750D01*
X148093348Y-97416831D01*
X148172913Y-97469165D01*
X148266843Y-97531889D01*
X148370754Y-97602139D01*
X148741794Y-97854444D01*
X149051080Y-97726946D01*
X149360365Y-97599448D01*
X149444186Y-97154824D01*
X149528006Y-96710200D01*
X150453454Y-96710200D01*
X150537275Y-97154824D01*
G37*
%TD*%
M02*
